<mxfile host="app.diagrams.net" modified="2021-10-16T09:15:10.958Z" agent="5.0 (Windows NT 10.0; Win64; x64) AppleWebKit/537.36 (KHTML, like Gecko) Chrome/94.0.4606.81 Safari/537.36" etag="EvYeSHUyEE8DiiHPBUc4" version="15.5.4" type="github">
  <diagram id="4IpSo0oMJruCDXSAzcHF" name="Page-1">
    <mxGraphModel dx="1550" dy="835" grid="1" gridSize="10" guides="1" tooltips="1" connect="1" arrows="1" fold="1" page="1" pageScale="1" pageWidth="827" pageHeight="1169" math="0" shadow="0">
      <root>
        <mxCell id="0" />
        <mxCell id="1" parent="0" />
        <mxCell id="-ZuaCUr0FzAR6G0-gc7L-2" style="edgeStyle=orthogonalEdgeStyle;rounded=0;orthogonalLoop=1;jettySize=auto;html=1;entryX=0;entryY=0.5;entryDx=0;entryDy=0;" parent="1" source="-ZuaCUr0FzAR6G0-gc7L-1" target="-ZuaCUr0FzAR6G0-gc7L-3" edge="1">
          <mxGeometry relative="1" as="geometry">
            <mxPoint x="390" y="190" as="targetPoint" />
          </mxGeometry>
        </mxCell>
        <mxCell id="-ZuaCUr0FzAR6G0-gc7L-5" style="edgeStyle=orthogonalEdgeStyle;rounded=0;orthogonalLoop=1;jettySize=auto;html=1;entryX=0;entryY=0.5;entryDx=0;entryDy=0;" parent="1" source="-ZuaCUr0FzAR6G0-gc7L-1" target="-ZuaCUr0FzAR6G0-gc7L-4" edge="1">
          <mxGeometry relative="1" as="geometry" />
        </mxCell>
        <mxCell id="-ZuaCUr0FzAR6G0-gc7L-7" style="edgeStyle=orthogonalEdgeStyle;rounded=0;orthogonalLoop=1;jettySize=auto;html=1;exitX=1;exitY=0.5;exitDx=0;exitDy=0;entryX=0;entryY=0.5;entryDx=0;entryDy=0;" parent="1" source="-ZuaCUr0FzAR6G0-gc7L-1" target="-ZuaCUr0FzAR6G0-gc7L-8" edge="1">
          <mxGeometry relative="1" as="geometry">
            <mxPoint x="300" y="450" as="targetPoint" />
          </mxGeometry>
        </mxCell>
        <mxCell id="-ZuaCUr0FzAR6G0-gc7L-10" style="edgeStyle=orthogonalEdgeStyle;rounded=0;orthogonalLoop=1;jettySize=auto;html=1;exitX=1;exitY=0.5;exitDx=0;exitDy=0;entryX=0;entryY=0.5;entryDx=0;entryDy=0;" parent="1" source="-ZuaCUr0FzAR6G0-gc7L-1" target="-ZuaCUr0FzAR6G0-gc7L-9" edge="1">
          <mxGeometry relative="1" as="geometry">
            <mxPoint x="310" y="440" as="targetPoint" />
          </mxGeometry>
        </mxCell>
        <mxCell id="-ZuaCUr0FzAR6G0-gc7L-1" value="版本v1.0.0分支" style="rounded=1;whiteSpace=wrap;html=1;" parent="1" vertex="1">
          <mxGeometry x="150" y="150" width="80" height="60" as="geometry" />
        </mxCell>
        <mxCell id="-ZuaCUr0FzAR6G0-gc7L-32" style="edgeStyle=orthogonalEdgeStyle;rounded=0;orthogonalLoop=1;jettySize=auto;html=1;exitX=1;exitY=0.5;exitDx=0;exitDy=0;fontColor=#FF3B14;" parent="1" source="-ZuaCUr0FzAR6G0-gc7L-3" edge="1">
          <mxGeometry relative="1" as="geometry">
            <mxPoint x="540" y="90" as="targetPoint" />
          </mxGeometry>
        </mxCell>
        <mxCell id="-ZuaCUr0FzAR6G0-gc7L-3" value="dev分支" style="rounded=1;whiteSpace=wrap;html=1;" parent="1" vertex="1">
          <mxGeometry x="370" y="60" width="120" height="60" as="geometry" />
        </mxCell>
        <mxCell id="-ZuaCUr0FzAR6G0-gc7L-35" style="edgeStyle=orthogonalEdgeStyle;rounded=0;orthogonalLoop=1;jettySize=auto;html=1;entryX=0;entryY=0.5;entryDx=0;entryDy=0;fontColor=#FF3B14;" parent="1" source="-ZuaCUr0FzAR6G0-gc7L-4" target="-ZuaCUr0FzAR6G0-gc7L-34" edge="1">
          <mxGeometry relative="1" as="geometry" />
        </mxCell>
        <mxCell id="-ZuaCUr0FzAR6G0-gc7L-4" value="test分支" style="rounded=1;whiteSpace=wrap;html=1;" parent="1" vertex="1">
          <mxGeometry x="370" y="150" width="120" height="60" as="geometry" />
        </mxCell>
        <mxCell id="-ZuaCUr0FzAR6G0-gc7L-37" style="edgeStyle=orthogonalEdgeStyle;rounded=0;orthogonalLoop=1;jettySize=auto;html=1;entryX=0;entryY=0.5;entryDx=0;entryDy=0;fontColor=#FF3B14;" parent="1" source="-ZuaCUr0FzAR6G0-gc7L-8" target="-ZuaCUr0FzAR6G0-gc7L-36" edge="1">
          <mxGeometry relative="1" as="geometry" />
        </mxCell>
        <mxCell id="-ZuaCUr0FzAR6G0-gc7L-8" value="pre分支" style="rounded=0;whiteSpace=wrap;html=1;" parent="1" vertex="1">
          <mxGeometry x="370" y="240" width="120" height="60" as="geometry" />
        </mxCell>
        <mxCell id="-ZuaCUr0FzAR6G0-gc7L-11" style="edgeStyle=orthogonalEdgeStyle;rounded=0;orthogonalLoop=1;jettySize=auto;html=1;exitX=0.5;exitY=1;exitDx=0;exitDy=0;entryX=0.5;entryY=1;entryDx=0;entryDy=0;" parent="1" source="-ZuaCUr0FzAR6G0-gc7L-9" target="-ZuaCUr0FzAR6G0-gc7L-1" edge="1">
          <mxGeometry relative="1" as="geometry" />
        </mxCell>
        <mxCell id="-ZuaCUr0FzAR6G0-gc7L-18" style="edgeStyle=orthogonalEdgeStyle;rounded=0;orthogonalLoop=1;jettySize=auto;html=1;exitX=1;exitY=0.5;exitDx=0;exitDy=0;entryX=0;entryY=0.5;entryDx=0;entryDy=0;" parent="1" source="-ZuaCUr0FzAR6G0-gc7L-9" target="-ZuaCUr0FzAR6G0-gc7L-19" edge="1">
          <mxGeometry relative="1" as="geometry">
            <mxPoint x="590" y="380" as="targetPoint" />
          </mxGeometry>
        </mxCell>
        <mxCell id="-ZuaCUr0FzAR6G0-gc7L-9" value="master分支" style="rounded=0;whiteSpace=wrap;html=1;" parent="1" vertex="1">
          <mxGeometry x="370" y="420" width="120" height="60" as="geometry" />
        </mxCell>
        <mxCell id="-ZuaCUr0FzAR6G0-gc7L-12" value="merge" style="text;html=1;strokeColor=none;fillColor=none;align=center;verticalAlign=middle;whiteSpace=wrap;rounded=0;" parent="1" vertex="1">
          <mxGeometry x="310" y="60" width="60" height="30" as="geometry" />
        </mxCell>
        <mxCell id="-ZuaCUr0FzAR6G0-gc7L-14" value="从master新建分支" style="text;html=1;strokeColor=none;fillColor=none;align=center;verticalAlign=middle;whiteSpace=wrap;rounded=0;" parent="1" vertex="1">
          <mxGeometry x="210" y="460" width="60" height="30" as="geometry" />
        </mxCell>
        <mxCell id="-ZuaCUr0FzAR6G0-gc7L-15" value="merge" style="text;html=1;strokeColor=none;fillColor=none;align=center;verticalAlign=middle;whiteSpace=wrap;rounded=0;" parent="1" vertex="1">
          <mxGeometry x="310" y="150" width="60" height="30" as="geometry" />
        </mxCell>
        <mxCell id="-ZuaCUr0FzAR6G0-gc7L-16" value="merge" style="text;html=1;strokeColor=none;fillColor=none;align=center;verticalAlign=middle;whiteSpace=wrap;rounded=0;" parent="1" vertex="1">
          <mxGeometry x="310" y="240" width="60" height="30" as="geometry" />
        </mxCell>
        <mxCell id="-ZuaCUr0FzAR6G0-gc7L-17" value="&lt;font color=&quot;#ff3b14&quot;&gt;先打tag再按顺序merge，有bugfix变动分支优先任意分支&lt;/font&gt;" style="text;html=1;strokeColor=none;fillColor=none;align=center;verticalAlign=middle;whiteSpace=wrap;rounded=0;" parent="1" vertex="1">
          <mxGeometry x="308" y="393" width="60" height="30" as="geometry" />
        </mxCell>
        <mxCell id="-ZuaCUr0FzAR6G0-gc7L-19" value="bugfix分支" style="rounded=0;whiteSpace=wrap;html=1;" parent="1" vertex="1">
          <mxGeometry x="630" y="420" width="120" height="60" as="geometry" />
        </mxCell>
        <mxCell id="-ZuaCUr0FzAR6G0-gc7L-24" value="上线后新建，如果原来版本还有问题还在原来版本修改再发完合并过来" style="text;html=1;strokeColor=none;fillColor=none;align=center;verticalAlign=middle;whiteSpace=wrap;rounded=0;" parent="1" vertex="1">
          <mxGeometry x="520" y="390" width="100" height="60" as="geometry" />
        </mxCell>
        <mxCell id="-ZuaCUr0FzAR6G0-gc7L-33" value="jenkins 构建&lt;br&gt;账号develop&lt;br&gt;密码develop123&lt;br&gt;" style="rounded=0;whiteSpace=wrap;html=1;fontColor=#FF3B14;" parent="1" vertex="1">
          <mxGeometry x="540" y="60" width="120" height="60" as="geometry" />
        </mxCell>
        <mxCell id="-ZuaCUr0FzAR6G0-gc7L-34" value="jenkins 构建&lt;br&gt;账号test&lt;br&gt;密码test123" style="rounded=0;whiteSpace=wrap;html=1;fontColor=#FF3B14;" parent="1" vertex="1">
          <mxGeometry x="550" y="150" width="120" height="60" as="geometry" />
        </mxCell>
        <mxCell id="-ZuaCUr0FzAR6G0-gc7L-36" value="jenkins 构建&lt;br&gt;账号test&lt;br&gt;密码test123" style="rounded=0;whiteSpace=wrap;html=1;fontColor=#FF3B14;" parent="1" vertex="1">
          <mxGeometry x="550" y="240" width="120" height="60" as="geometry" />
        </mxCell>
        <mxCell id="-ZuaCUr0FzAR6G0-gc7L-38" value="&lt;font color=&quot;#030303&quot;&gt;标准共同 master&lt;/font&gt;" style="rounded=0;whiteSpace=wrap;html=1;fontColor=#FF3B14;" parent="1" vertex="1">
          <mxGeometry x="687" y="630" width="120" height="60" as="geometry" />
        </mxCell>
        <mxCell id="-ZuaCUr0FzAR6G0-gc7L-39" value="&lt;font color=&quot;#030303&quot;&gt;标准特有&amp;nbsp;standard&lt;/font&gt;" style="rounded=0;whiteSpace=wrap;html=1;fontColor=#FF3B14;" parent="1" vertex="1">
          <mxGeometry x="507" y="1010" width="120" height="60" as="geometry" />
        </mxCell>
        <mxCell id="-ZuaCUr0FzAR6G0-gc7L-40" value="&lt;font color=&quot;#050505&quot;&gt;定制化分支管理&lt;/font&gt;" style="text;html=1;strokeColor=none;fillColor=none;align=center;verticalAlign=middle;whiteSpace=wrap;rounded=0;fontColor=#FF3B14;" parent="1" vertex="1">
          <mxGeometry x="350" y="565" width="150" height="30" as="geometry" />
        </mxCell>
        <mxCell id="-ZuaCUr0FzAR6G0-gc7L-41" value="开发分支流程管理" style="text;html=1;strokeColor=none;fillColor=none;align=center;verticalAlign=middle;whiteSpace=wrap;rounded=0;fontColor=#050505;" parent="1" vertex="1">
          <mxGeometry x="370" y="10" width="210" height="30" as="geometry" />
        </mxCell>
        <mxCell id="-ZuaCUr0FzAR6G0-gc7L-42" value="定制1 custom1" style="rounded=0;whiteSpace=wrap;html=1;fontColor=#FF3B14;" parent="1" vertex="1">
          <mxGeometry x="390" y="1413" width="120" height="60" as="geometry" />
        </mxCell>
        <mxCell id="-ZuaCUr0FzAR6G0-gc7L-61" style="edgeStyle=orthogonalEdgeStyle;rounded=0;orthogonalLoop=1;jettySize=auto;html=1;exitX=1;exitY=0.5;exitDx=0;exitDy=0;entryX=0;entryY=0.5;entryDx=0;entryDy=0;fontColor=#030303;" parent="1" source="-ZuaCUr0FzAR6G0-gc7L-45" target="-ZuaCUr0FzAR6G0-gc7L-52" edge="1">
          <mxGeometry relative="1" as="geometry" />
        </mxCell>
        <mxCell id="-ZuaCUr0FzAR6G0-gc7L-62" style="edgeStyle=orthogonalEdgeStyle;rounded=0;orthogonalLoop=1;jettySize=auto;html=1;entryX=0;entryY=0.5;entryDx=0;entryDy=0;fontColor=#030303;" parent="1" source="-ZuaCUr0FzAR6G0-gc7L-45" target="-ZuaCUr0FzAR6G0-gc7L-53" edge="1">
          <mxGeometry relative="1" as="geometry" />
        </mxCell>
        <mxCell id="-ZuaCUr0FzAR6G0-gc7L-63" style="edgeStyle=orthogonalEdgeStyle;rounded=0;orthogonalLoop=1;jettySize=auto;html=1;entryX=0;entryY=0.75;entryDx=0;entryDy=0;fontColor=#030303;" parent="1" source="-ZuaCUr0FzAR6G0-gc7L-45" target="-ZuaCUr0FzAR6G0-gc7L-54" edge="1">
          <mxGeometry relative="1" as="geometry" />
        </mxCell>
        <mxCell id="-ZuaCUr0FzAR6G0-gc7L-65" style="edgeStyle=orthogonalEdgeStyle;rounded=0;orthogonalLoop=1;jettySize=auto;html=1;entryX=0;entryY=0.75;entryDx=0;entryDy=0;fontColor=#030303;" parent="1" source="-ZuaCUr0FzAR6G0-gc7L-45" target="-ZuaCUr0FzAR6G0-gc7L-39" edge="1">
          <mxGeometry relative="1" as="geometry" />
        </mxCell>
        <mxCell id="-ZuaCUr0FzAR6G0-gc7L-69" value="2" style="edgeLabel;html=1;align=center;verticalAlign=middle;resizable=0;points=[];fontColor=#FF3B14;" parent="-ZuaCUr0FzAR6G0-gc7L-65" vertex="1" connectable="0">
          <mxGeometry x="-0.9042" y="2" relative="1" as="geometry">
            <mxPoint as="offset" />
          </mxGeometry>
        </mxCell>
        <mxCell id="-ZuaCUr0FzAR6G0-gc7L-45" value="标准特有&lt;br&gt;standard-v1.0.0" style="rounded=0;whiteSpace=wrap;html=1;fontColor=#030303;" parent="1" vertex="1">
          <mxGeometry x="247" y="785" width="120" height="60" as="geometry" />
        </mxCell>
        <mxCell id="-ZuaCUr0FzAR6G0-gc7L-66" style="edgeStyle=orthogonalEdgeStyle;rounded=0;orthogonalLoop=1;jettySize=auto;html=1;fontColor=#030303;startArrow=none;" parent="1" source="-ZuaCUr0FzAR6G0-gc7L-67" edge="1">
          <mxGeometry relative="1" as="geometry">
            <mxPoint x="407" y="820" as="targetPoint" />
          </mxGeometry>
        </mxCell>
        <mxCell id="-ZuaCUr0FzAR6G0-gc7L-70" style="edgeStyle=orthogonalEdgeStyle;rounded=0;orthogonalLoop=1;jettySize=auto;html=1;entryX=0;entryY=0.5;entryDx=0;entryDy=0;fontColor=#FF3B14;" parent="1" source="-ZuaCUr0FzAR6G0-gc7L-46" target="-ZuaCUr0FzAR6G0-gc7L-38" edge="1">
          <mxGeometry relative="1" as="geometry" />
        </mxCell>
        <mxCell id="-ZuaCUr0FzAR6G0-gc7L-71" value="发版后更新" style="edgeLabel;html=1;align=center;verticalAlign=middle;resizable=0;points=[];fontColor=#FF3B14;" parent="-ZuaCUr0FzAR6G0-gc7L-70" vertex="1" connectable="0">
          <mxGeometry x="-0.1503" y="3" relative="1" as="geometry">
            <mxPoint as="offset" />
          </mxGeometry>
        </mxCell>
        <mxCell id="-ZuaCUr0FzAR6G0-gc7L-84" style="edgeStyle=orthogonalEdgeStyle;rounded=0;orthogonalLoop=1;jettySize=auto;html=1;fontColor=#FF3B14;" parent="1" source="-ZuaCUr0FzAR6G0-gc7L-46" edge="1">
          <mxGeometry relative="1" as="geometry">
            <mxPoint x="250" y="1200" as="targetPoint" />
          </mxGeometry>
        </mxCell>
        <mxCell id="-ZuaCUr0FzAR6G0-gc7L-85" value="1" style="edgeLabel;html=1;align=center;verticalAlign=middle;resizable=0;points=[];fontColor=#FF3B14;" parent="-ZuaCUr0FzAR6G0-gc7L-84" vertex="1" connectable="0">
          <mxGeometry x="0.5073" y="2" relative="1" as="geometry">
            <mxPoint as="offset" />
          </mxGeometry>
        </mxCell>
        <mxCell id="-ZuaCUr0FzAR6G0-gc7L-46" value="标准共同&lt;br&gt;common-v1.0.0" style="rounded=0;whiteSpace=wrap;html=1;fontColor=#030303;" parent="1" vertex="1">
          <mxGeometry x="257" y="630" width="120" height="60" as="geometry" />
        </mxCell>
        <mxCell id="-ZuaCUr0FzAR6G0-gc7L-82" style="edgeStyle=orthogonalEdgeStyle;rounded=0;orthogonalLoop=1;jettySize=auto;html=1;entryX=0;entryY=0.5;entryDx=0;entryDy=0;fontColor=#FF3B14;" parent="1" source="-ZuaCUr0FzAR6G0-gc7L-47" target="-ZuaCUr0FzAR6G0-gc7L-75" edge="1">
          <mxGeometry relative="1" as="geometry" />
        </mxCell>
        <mxCell id="-ZuaCUr0FzAR6G0-gc7L-86" style="edgeStyle=orthogonalEdgeStyle;rounded=0;orthogonalLoop=1;jettySize=auto;html=1;fontColor=#FF3B14;" parent="1" source="-ZuaCUr0FzAR6G0-gc7L-47" target="-ZuaCUr0FzAR6G0-gc7L-76" edge="1">
          <mxGeometry relative="1" as="geometry" />
        </mxCell>
        <mxCell id="-ZuaCUr0FzAR6G0-gc7L-87" style="edgeStyle=orthogonalEdgeStyle;rounded=0;orthogonalLoop=1;jettySize=auto;html=1;entryX=0;entryY=0.75;entryDx=0;entryDy=0;fontColor=#FF3B14;" parent="1" source="-ZuaCUr0FzAR6G0-gc7L-47" target="-ZuaCUr0FzAR6G0-gc7L-77" edge="1">
          <mxGeometry relative="1" as="geometry" />
        </mxCell>
        <mxCell id="-ZuaCUr0FzAR6G0-gc7L-88" style="edgeStyle=orthogonalEdgeStyle;rounded=0;orthogonalLoop=1;jettySize=auto;html=1;fontColor=#FF3B14;entryX=0;entryY=0.643;entryDx=0;entryDy=0;entryPerimeter=0;" parent="1" source="-ZuaCUr0FzAR6G0-gc7L-47" target="-ZuaCUr0FzAR6G0-gc7L-42" edge="1">
          <mxGeometry relative="1" as="geometry">
            <mxPoint x="310" y="1483" as="targetPoint" />
          </mxGeometry>
        </mxCell>
        <mxCell id="-ZuaCUr0FzAR6G0-gc7L-47" value="定制1 &lt;br&gt;custom1-v1.0.0" style="rounded=0;whiteSpace=wrap;html=1;fontColor=#FF3B14;" parent="1" vertex="1">
          <mxGeometry x="110" y="1173" width="120" height="60" as="geometry" />
        </mxCell>
        <mxCell id="-ZuaCUr0FzAR6G0-gc7L-52" value="standard-dev分支" style="rounded=1;whiteSpace=wrap;html=1;" parent="1" vertex="1">
          <mxGeometry x="507" y="710" width="120" height="60" as="geometry" />
        </mxCell>
        <mxCell id="-ZuaCUr0FzAR6G0-gc7L-53" value="standard-test分支" style="rounded=1;whiteSpace=wrap;html=1;" parent="1" vertex="1">
          <mxGeometry x="507" y="800" width="120" height="60" as="geometry" />
        </mxCell>
        <mxCell id="-ZuaCUr0FzAR6G0-gc7L-54" value="standard-pre分支" style="rounded=0;whiteSpace=wrap;html=1;" parent="1" vertex="1">
          <mxGeometry x="507" y="890" width="120" height="60" as="geometry" />
        </mxCell>
        <mxCell id="-ZuaCUr0FzAR6G0-gc7L-55" value="merge" style="text;html=1;strokeColor=none;fillColor=none;align=center;verticalAlign=middle;whiteSpace=wrap;rounded=0;" parent="1" vertex="1">
          <mxGeometry x="447" y="710" width="60" height="30" as="geometry" />
        </mxCell>
        <mxCell id="-ZuaCUr0FzAR6G0-gc7L-56" value="merge" style="text;html=1;strokeColor=none;fillColor=none;align=center;verticalAlign=middle;whiteSpace=wrap;rounded=0;" parent="1" vertex="1">
          <mxGeometry x="447" y="800" width="60" height="30" as="geometry" />
        </mxCell>
        <mxCell id="-ZuaCUr0FzAR6G0-gc7L-57" value="merge" style="text;html=1;strokeColor=none;fillColor=none;align=center;verticalAlign=middle;whiteSpace=wrap;rounded=0;" parent="1" vertex="1">
          <mxGeometry x="447" y="896" width="60" height="30" as="geometry" />
        </mxCell>
        <mxCell id="-ZuaCUr0FzAR6G0-gc7L-58" value="&lt;font color=&quot;#ff3b14&quot;&gt;先打tag再按顺序merge，有bugfix变动分支优先任意分支&lt;/font&gt;" style="text;html=1;strokeColor=none;fillColor=none;align=center;verticalAlign=middle;whiteSpace=wrap;rounded=0;" parent="1" vertex="1">
          <mxGeometry x="445" y="991" width="60" height="30" as="geometry" />
        </mxCell>
        <mxCell id="-ZuaCUr0FzAR6G0-gc7L-67" value="&lt;font color=&quot;#ff3b14&quot;&gt;1&lt;/font&gt;" style="text;html=1;strokeColor=none;fillColor=none;align=center;verticalAlign=middle;whiteSpace=wrap;rounded=0;fontColor=#030303;" parent="1" vertex="1">
          <mxGeometry x="357" y="720" width="60" height="30" as="geometry" />
        </mxCell>
        <mxCell id="-ZuaCUr0FzAR6G0-gc7L-68" value="" style="edgeStyle=orthogonalEdgeStyle;rounded=0;orthogonalLoop=1;jettySize=auto;html=1;fontColor=#030303;endArrow=none;" parent="1" source="-ZuaCUr0FzAR6G0-gc7L-46" target="-ZuaCUr0FzAR6G0-gc7L-67" edge="1">
          <mxGeometry relative="1" as="geometry">
            <mxPoint x="407" y="820" as="targetPoint" />
            <mxPoint x="377" y="660" as="sourcePoint" />
          </mxGeometry>
        </mxCell>
        <mxCell id="-ZuaCUr0FzAR6G0-gc7L-73" value="2" style="edgeLabel;html=1;align=center;verticalAlign=middle;resizable=0;points=[];fontColor=#FF3B14;" parent="1" vertex="1" connectable="0">
          <mxGeometry x="268" y="1193" as="geometry" />
        </mxCell>
        <mxCell id="-ZuaCUr0FzAR6G0-gc7L-75" value="custom-dev分支" style="rounded=1;whiteSpace=wrap;html=1;" parent="1" vertex="1">
          <mxGeometry x="390" y="1090" width="120" height="60" as="geometry" />
        </mxCell>
        <mxCell id="-ZuaCUr0FzAR6G0-gc7L-76" value="custom-test分支" style="rounded=1;whiteSpace=wrap;html=1;" parent="1" vertex="1">
          <mxGeometry x="390" y="1180" width="120" height="60" as="geometry" />
        </mxCell>
        <mxCell id="-ZuaCUr0FzAR6G0-gc7L-77" value="custom-pre分支" style="rounded=0;whiteSpace=wrap;html=1;" parent="1" vertex="1">
          <mxGeometry x="390" y="1270" width="120" height="60" as="geometry" />
        </mxCell>
        <mxCell id="-ZuaCUr0FzAR6G0-gc7L-78" value="merge" style="text;html=1;strokeColor=none;fillColor=none;align=center;verticalAlign=middle;whiteSpace=wrap;rounded=0;" parent="1" vertex="1">
          <mxGeometry x="330" y="1090" width="60" height="30" as="geometry" />
        </mxCell>
        <mxCell id="-ZuaCUr0FzAR6G0-gc7L-79" value="merge" style="text;html=1;strokeColor=none;fillColor=none;align=center;verticalAlign=middle;whiteSpace=wrap;rounded=0;" parent="1" vertex="1">
          <mxGeometry x="330" y="1180" width="60" height="30" as="geometry" />
        </mxCell>
        <mxCell id="-ZuaCUr0FzAR6G0-gc7L-80" value="merge" style="text;html=1;strokeColor=none;fillColor=none;align=center;verticalAlign=middle;whiteSpace=wrap;rounded=0;" parent="1" vertex="1">
          <mxGeometry x="330" y="1276" width="60" height="30" as="geometry" />
        </mxCell>
        <mxCell id="-ZuaCUr0FzAR6G0-gc7L-81" value="&lt;font color=&quot;#ff3b14&quot;&gt;先打tag再按顺序merge，有bugfix变动分支优先任意分支&lt;/font&gt;" style="text;html=1;strokeColor=none;fillColor=none;align=center;verticalAlign=middle;whiteSpace=wrap;rounded=0;" parent="1" vertex="1">
          <mxGeometry x="328" y="1371" width="60" height="30" as="geometry" />
        </mxCell>
      </root>
    </mxGraphModel>
  </diagram>
</mxfile>
